<svg width="560" height="380" viewBox="0 0 560 380" fill="none" xmlns="http://www.w3.org/2000/svg">
  <rect width="560" height="380" rx="28" fill="#FFF8EA"/>
  <circle cx="279" cy="188" r="106" fill="#DCE6D6"/>
  <circle cx="279" cy="188" r="68" fill="#FFF8EA"/>
  <path d="M280 76C331.281 76 373.981 112.013 383 160" stroke="#26362C" stroke-width="8" stroke-linecap="round"/>
  <path d="M388 142L403 164L376 168" stroke="#26362C" stroke-width="8" stroke-linecap="round" stroke-linejoin="round"/>
  <path d="M279 300C227.719 300 185.019 263.987 176 216" stroke="#BF6C4D" stroke-width="8" stroke-linecap="round"/>
  <path d="M171 234L156 212L183 208" stroke="#BF6C4D" stroke-width="8" stroke-linecap="round" stroke-linejoin="round"/>
  <rect x="78" y="116" width="122" height="80" rx="22" fill="#FFFDF7" stroke="#2C241E" stroke-opacity="0.1" stroke-width="3"/>
  <rect x="360" y="180" width="124" height="80" rx="22" fill="#FFFDF7" stroke="#2C241E" stroke-opacity="0.1" stroke-width="3"/>
  <path d="M102 142H178" stroke="#2C241E" stroke-opacity="0.24" stroke-width="4" stroke-linecap="round"/>
  <path d="M102 164H162" stroke="#2C241E" stroke-opacity="0.24" stroke-width="4" stroke-linecap="round"/>
  <path d="M384 206H460" stroke="#2C241E" stroke-opacity="0.24" stroke-width="4" stroke-linecap="round"/>
  <path d="M384 228H444" stroke="#2C241E" stroke-opacity="0.24" stroke-width="4" stroke-linecap="round"/>
  <text x="182" y="196" fill="#26362C" font-family="Palatino Linotype, serif" font-size="24" font-weight="700">Prompt</text>
  <text x="250" y="228" fill="#BF6C4D" font-family="Palatino Linotype, serif" font-size="24" font-weight="700">Revise</text>
</svg>
